<svg xmlns="http://www.w3.org/2000/svg" viewBox="0 0 1024 1024" fill="none">
  <defs>
    <filter id="tile-shadow" x="0" y="0" width="1024" height="1024" filterUnits="userSpaceOnUse">
      <feDropShadow dx="0" dy="12" stdDeviation="18" flood-color="#191B20" flood-opacity=".16"/>
    </filter>
  </defs>
  <rect x="100" y="100" width="824" height="824" rx="186" fill="#FCFCFD" stroke="#E0E2E7" stroke-width="6" filter="url(#tile-shadow)"/>
  <g transform="translate(512 512) scale(1.55) translate(-256 -256)">
    <path fill="#191B20" d="M166 108 H274 A58 58 0 0 1 331 156 H238 A82 82 0 0 0 156 238 V331 A58 58 0 0 1 108 274 V166 A58 58 0 0 1 166 108 Z"/>
    <path fill="#191B20" d="M238 180 H346 A58 58 0 0 1 404 238 V346 A58 58 0 0 1 346 404 H238 A58 58 0 0 1 180 346 V238 A58 58 0 0 1 238 180 Z"/>
  </g>
</svg>
